G04 #@! TF.FileFunction,Legend,Top*
%FSLAX46Y46*%
G04 Gerber Fmt 4.6, Leading zero omitted, Abs format (unit mm)*
G04 Created by KiCad (PCBNEW 4.0.0-1rc2.201511201506+6189~38~ubuntu14.04.1-stable) date dom 29 nov 2015 21:26:02 COT*
%MOMM*%
G01*
G04 APERTURE LIST*
%ADD10C,0.100000*%
%ADD11C,0.150000*%
G04 APERTURE END LIST*
D10*
D11*
X108458000Y-41402000D02*
X107696000Y-41402000D01*
X107696000Y-41402000D02*
X107696000Y-50038000D01*
X107696000Y-50038000D02*
X108458000Y-50038000D01*
X111506000Y-41402000D02*
X111506000Y-50038000D01*
X121158000Y-41402000D02*
X121158000Y-50038000D01*
X108458000Y-50038000D02*
X121158000Y-50038000D01*
X108458000Y-41402000D02*
X121158000Y-41402000D01*
X181241700Y-69697600D02*
X180733700Y-69697600D01*
X181241700Y-70205600D02*
X180733700Y-70205600D01*
X181241700Y-67665600D02*
X180733700Y-67665600D01*
X181241700Y-67157600D02*
X180733700Y-67157600D01*
X181241700Y-65125600D02*
X180733700Y-65125600D01*
X181241700Y-64617600D02*
X180733700Y-64617600D01*
X181241700Y-56997600D02*
X180733700Y-56997600D01*
X181241700Y-57505600D02*
X180733700Y-57505600D01*
X181241700Y-62585600D02*
X180733700Y-62585600D01*
X181241700Y-62077600D02*
X180733700Y-62077600D01*
X181241700Y-60045600D02*
X180733700Y-60045600D01*
X181241700Y-59537600D02*
X180733700Y-59537600D01*
X183781700Y-70205600D02*
X183273700Y-70205600D01*
X183781700Y-69697600D02*
X183273700Y-69697600D01*
X183781700Y-67665600D02*
X183273700Y-67665600D01*
X183781700Y-67157600D02*
X183273700Y-67157600D01*
X183781700Y-56997600D02*
X183273700Y-56997600D01*
X183781700Y-57505600D02*
X183273700Y-57505600D01*
X183781700Y-59537600D02*
X183273700Y-59537600D01*
X183781700Y-60045600D02*
X183273700Y-60045600D01*
X183781700Y-65125600D02*
X183273700Y-65125600D01*
X183781700Y-64617600D02*
X183273700Y-64617600D01*
X183781700Y-62585600D02*
X183273700Y-62585600D01*
X183781700Y-62077600D02*
X183273700Y-62077600D01*
X179717700Y-55701600D02*
X178567700Y-55701600D01*
X178567700Y-55701600D02*
X178567700Y-57251600D01*
X186321700Y-57124600D02*
X192290700Y-57124600D01*
X192290700Y-57124600D02*
X192290700Y-57378600D01*
X192290700Y-57378600D02*
X186448700Y-57378600D01*
X186448700Y-57378600D02*
X186448700Y-57251600D01*
X186448700Y-57251600D02*
X192290700Y-57251600D01*
X183781700Y-66141600D02*
X186321700Y-66141600D01*
X183781700Y-66141600D02*
X183781700Y-68681600D01*
X183781700Y-68681600D02*
X186321700Y-68681600D01*
X186321700Y-67157600D02*
X192417700Y-67157600D01*
X192417700Y-67157600D02*
X192417700Y-67665600D01*
X192417700Y-67665600D02*
X186321700Y-67665600D01*
X186321700Y-68681600D02*
X186321700Y-66141600D01*
X186321700Y-71221600D02*
X186321700Y-68681600D01*
X192417700Y-70205600D02*
X186321700Y-70205600D01*
X192417700Y-69697600D02*
X192417700Y-70205600D01*
X186321700Y-69697600D02*
X192417700Y-69697600D01*
X183781700Y-68681600D02*
X183781700Y-71221600D01*
X183781700Y-68681600D02*
X186321700Y-68681600D01*
X183781700Y-71221600D02*
X186321700Y-71221600D01*
X183781700Y-61061600D02*
X186321700Y-61061600D01*
X183781700Y-61061600D02*
X183781700Y-63601600D01*
X183781700Y-63601600D02*
X186321700Y-63601600D01*
X186321700Y-62077600D02*
X192417700Y-62077600D01*
X192417700Y-62077600D02*
X192417700Y-62585600D01*
X192417700Y-62585600D02*
X186321700Y-62585600D01*
X186321700Y-63601600D02*
X186321700Y-61061600D01*
X186321700Y-66141600D02*
X186321700Y-63601600D01*
X192417700Y-65125600D02*
X186321700Y-65125600D01*
X192417700Y-64617600D02*
X192417700Y-65125600D01*
X186321700Y-64617600D02*
X192417700Y-64617600D01*
X183781700Y-66141600D02*
X186321700Y-66141600D01*
X183781700Y-63601600D02*
X183781700Y-66141600D01*
X183781700Y-63601600D02*
X186321700Y-63601600D01*
X183781700Y-58521600D02*
X186321700Y-58521600D01*
X183781700Y-58521600D02*
X183781700Y-61061600D01*
X183781700Y-61061600D02*
X186321700Y-61061600D01*
X186321700Y-59537600D02*
X192417700Y-59537600D01*
X192417700Y-59537600D02*
X192417700Y-60045600D01*
X192417700Y-60045600D02*
X186321700Y-60045600D01*
X186321700Y-61061600D02*
X186321700Y-58521600D01*
X186321700Y-58521600D02*
X186321700Y-55981600D01*
X192417700Y-57505600D02*
X186321700Y-57505600D01*
X192417700Y-56997600D02*
X192417700Y-57505600D01*
X186321700Y-56997600D02*
X192417700Y-56997600D01*
X183781700Y-58521600D02*
X186321700Y-58521600D01*
X183781700Y-55981600D02*
X183781700Y-58521600D01*
X183781700Y-55981600D02*
X186321700Y-55981600D01*
X113060000Y-68860000D02*
X113060000Y-67310000D01*
X111760000Y-68860000D02*
X113060000Y-68860000D01*
X107569000Y-67437000D02*
X101727000Y-67437000D01*
X101727000Y-67437000D02*
X101727000Y-67183000D01*
X101727000Y-67183000D02*
X107569000Y-67183000D01*
X107569000Y-67183000D02*
X107569000Y-67310000D01*
X107569000Y-67310000D02*
X101727000Y-67310000D01*
X110236000Y-67564000D02*
X110617000Y-67564000D01*
X110236000Y-67056000D02*
X110617000Y-67056000D01*
X110236000Y-65024000D02*
X110617000Y-65024000D01*
X110236000Y-64516000D02*
X110617000Y-64516000D01*
X110236000Y-62484000D02*
X110617000Y-62484000D01*
X110236000Y-61976000D02*
X110617000Y-61976000D01*
X110236000Y-59436000D02*
X110617000Y-59436000D01*
X110236000Y-59944000D02*
X110617000Y-59944000D01*
X110236000Y-68580000D02*
X107696000Y-68580000D01*
X110236000Y-66040000D02*
X107696000Y-66040000D01*
X110236000Y-66040000D02*
X110236000Y-63500000D01*
X110236000Y-63500000D02*
X107696000Y-63500000D01*
X107696000Y-65024000D02*
X101600000Y-65024000D01*
X101600000Y-65024000D02*
X101600000Y-64516000D01*
X101600000Y-64516000D02*
X107696000Y-64516000D01*
X107696000Y-63500000D02*
X107696000Y-66040000D01*
X107696000Y-66040000D02*
X107696000Y-68580000D01*
X101600000Y-67056000D02*
X107696000Y-67056000D01*
X101600000Y-67564000D02*
X101600000Y-67056000D01*
X107696000Y-67564000D02*
X101600000Y-67564000D01*
X110236000Y-66040000D02*
X107696000Y-66040000D01*
X110236000Y-68580000D02*
X110236000Y-66040000D01*
X110236000Y-60960000D02*
X107696000Y-60960000D01*
X110236000Y-60960000D02*
X110236000Y-58420000D01*
X110236000Y-58420000D02*
X107696000Y-58420000D01*
X107696000Y-59944000D02*
X101600000Y-59944000D01*
X101600000Y-59944000D02*
X101600000Y-59436000D01*
X101600000Y-59436000D02*
X107696000Y-59436000D01*
X107696000Y-58420000D02*
X107696000Y-60960000D01*
X107696000Y-60960000D02*
X107696000Y-63500000D01*
X101600000Y-61976000D02*
X107696000Y-61976000D01*
X101600000Y-62484000D02*
X101600000Y-61976000D01*
X107696000Y-62484000D02*
X101600000Y-62484000D01*
X110236000Y-60960000D02*
X107696000Y-60960000D01*
X110236000Y-63500000D02*
X110236000Y-60960000D01*
X110236000Y-63500000D02*
X107696000Y-63500000D01*
X151560000Y-82980000D02*
X151560000Y-79580000D01*
X151557056Y-82977056D02*
G75*
G02X147460000Y-81280000I-1697056J1697056D01*
G01*
X151557056Y-79582944D02*
G75*
G03X147460000Y-81280000I-1697056J-1697056D01*
G01*
X151560000Y-69010000D02*
X151560000Y-65610000D01*
X151557056Y-69007056D02*
G75*
G02X147460000Y-67310000I-1697056J1697056D01*
G01*
X151557056Y-65612944D02*
G75*
G03X147460000Y-67310000I-1697056J-1697056D01*
G01*
X151077400Y-55649600D02*
X151077400Y-52249600D01*
X151074456Y-55646656D02*
G75*
G02X146977400Y-53949600I-1697056J1697056D01*
G01*
X151074456Y-52252544D02*
G75*
G03X146977400Y-53949600I-1697056J-1697056D01*
G01*
X136512300Y-58178700D02*
X136512300Y-60083700D01*
X136512300Y-62623700D02*
X136512300Y-61861700D01*
X136512300Y-65036700D02*
X136512300Y-65163700D01*
X136512300Y-65036700D02*
X136512300Y-64401700D01*
X136512300Y-68846700D02*
X136512300Y-67068700D01*
X140195300Y-68846700D02*
X140195300Y-67195700D01*
X140322300Y-64528700D02*
X140322300Y-65163700D01*
X140322300Y-61988700D02*
X140322300Y-62623700D01*
X140195300Y-58178700D02*
X140195300Y-59829700D01*
X135369300Y-65036700D02*
X136512300Y-65036700D01*
X135369300Y-61988700D02*
X136512300Y-61988700D01*
X136512300Y-58178700D02*
X140195300Y-58178700D01*
X140195300Y-68846700D02*
X136512300Y-68846700D01*
X135369300Y-58178700D02*
X136512300Y-58178700D01*
X136512300Y-68846700D02*
X135369300Y-68846700D01*
X135369300Y-63512700D02*
X135369300Y-68846700D01*
X135369300Y-63512700D02*
X135369300Y-58178700D01*
X136893300Y-42291000D02*
X136893300Y-44196000D01*
X136893300Y-46736000D02*
X136893300Y-45974000D01*
X136893300Y-49149000D02*
X136893300Y-49276000D01*
X136893300Y-49149000D02*
X136893300Y-48514000D01*
X136893300Y-52959000D02*
X136893300Y-51181000D01*
X140576300Y-52959000D02*
X140576300Y-51308000D01*
X140703300Y-48641000D02*
X140703300Y-49276000D01*
X140703300Y-46101000D02*
X140703300Y-46736000D01*
X140576300Y-42291000D02*
X140576300Y-43942000D01*
X135750300Y-49149000D02*
X136893300Y-49149000D01*
X135750300Y-46101000D02*
X136893300Y-46101000D01*
X136893300Y-42291000D02*
X140576300Y-42291000D01*
X140576300Y-52959000D02*
X136893300Y-52959000D01*
X135750300Y-42291000D02*
X136893300Y-42291000D01*
X136893300Y-52959000D02*
X135750300Y-52959000D01*
X135750300Y-47625000D02*
X135750300Y-52959000D01*
X135750300Y-47625000D02*
X135750300Y-42291000D01*
X136642000Y-73305000D02*
X136642000Y-75210000D01*
X136642000Y-77750000D02*
X136642000Y-76988000D01*
X136642000Y-80163000D02*
X136642000Y-80290000D01*
X136642000Y-80163000D02*
X136642000Y-79528000D01*
X136642000Y-83973000D02*
X136642000Y-82195000D01*
X140325000Y-83973000D02*
X140325000Y-82322000D01*
X140452000Y-79655000D02*
X140452000Y-80290000D01*
X140452000Y-77115000D02*
X140452000Y-77750000D01*
X140325000Y-73305000D02*
X140325000Y-74956000D01*
X135499000Y-80163000D02*
X136642000Y-80163000D01*
X135499000Y-77115000D02*
X136642000Y-77115000D01*
X136642000Y-73305000D02*
X140325000Y-73305000D01*
X140325000Y-83973000D02*
X136642000Y-83973000D01*
X135499000Y-73305000D02*
X136642000Y-73305000D01*
X136642000Y-83973000D02*
X135499000Y-83973000D01*
X135499000Y-78639000D02*
X135499000Y-83973000D01*
X135499000Y-78639000D02*
X135499000Y-73305000D01*
X163042600Y-59448700D02*
X168122600Y-59448700D01*
X168122600Y-59448700D02*
X168122600Y-61988700D01*
X168122600Y-61988700D02*
X163042600Y-61988700D01*
X163042600Y-61988700D02*
X163042600Y-59448700D01*
X163042600Y-60718700D02*
X161772600Y-60718700D01*
X168122600Y-60718700D02*
X169392600Y-60718700D01*
X163309300Y-79362300D02*
X168389300Y-79362300D01*
X168389300Y-79362300D02*
X168389300Y-81902300D01*
X168389300Y-81902300D02*
X163309300Y-81902300D01*
X163309300Y-81902300D02*
X163309300Y-79362300D01*
X163309300Y-80632300D02*
X162039300Y-80632300D01*
X168389300Y-80632300D02*
X169659300Y-80632300D01*
X163309300Y-53136800D02*
X168389300Y-53136800D01*
X168389300Y-53136800D02*
X168389300Y-55676800D01*
X168389300Y-55676800D02*
X163309300Y-55676800D01*
X163309300Y-55676800D02*
X163309300Y-53136800D01*
X163309300Y-54406800D02*
X162039300Y-54406800D01*
X168389300Y-54406800D02*
X169659300Y-54406800D01*
X164274500Y-67335400D02*
X164274500Y-72415400D01*
X164274500Y-72415400D02*
X161734500Y-72415400D01*
X161734500Y-72415400D02*
X161734500Y-67335400D01*
X161734500Y-67335400D02*
X164274500Y-67335400D01*
X163004500Y-67335400D02*
X163004500Y-66065400D01*
X163004500Y-72415400D02*
X163004500Y-73685400D01*
X166446200Y-72415400D02*
X166446200Y-67335400D01*
X166446200Y-67335400D02*
X168986200Y-67335400D01*
X168986200Y-67335400D02*
X168986200Y-72415400D01*
X168986200Y-72415400D02*
X166446200Y-72415400D01*
X167716200Y-72415400D02*
X167716200Y-73685400D01*
X167716200Y-67335400D02*
X167716200Y-66065400D01*
X159651700Y-67602100D02*
X159651700Y-72682100D01*
X159651700Y-72682100D02*
X157111700Y-72682100D01*
X157111700Y-72682100D02*
X157111700Y-67602100D01*
X157111700Y-67602100D02*
X159651700Y-67602100D01*
X158381700Y-67602100D02*
X158381700Y-66332100D01*
X158381700Y-72682100D02*
X158381700Y-73952100D01*
X130924300Y-85521800D02*
X136004300Y-85521800D01*
X136004300Y-85521800D02*
X136004300Y-88061800D01*
X136004300Y-88061800D02*
X130924300Y-88061800D01*
X130924300Y-88061800D02*
X130924300Y-85521800D01*
X130924300Y-86791800D02*
X129654300Y-86791800D01*
X136004300Y-86791800D02*
X137274300Y-86791800D01*
X130644900Y-69786500D02*
X135724900Y-69786500D01*
X135724900Y-69786500D02*
X135724900Y-72326500D01*
X135724900Y-72326500D02*
X130644900Y-72326500D01*
X130644900Y-72326500D02*
X130644900Y-69786500D01*
X130644900Y-71056500D02*
X129374900Y-71056500D01*
X135724900Y-71056500D02*
X136994900Y-71056500D01*
X130543300Y-54470300D02*
X135623300Y-54470300D01*
X135623300Y-54470300D02*
X135623300Y-57010300D01*
X135623300Y-57010300D02*
X130543300Y-57010300D01*
X130543300Y-57010300D02*
X130543300Y-54470300D01*
X130543300Y-55740300D02*
X129273300Y-55740300D01*
X135623300Y-55740300D02*
X136893300Y-55740300D01*
X114609715Y-40489143D02*
X114562096Y-40536762D01*
X114419239Y-40584381D01*
X114324001Y-40584381D01*
X114181143Y-40536762D01*
X114085905Y-40441524D01*
X114038286Y-40346286D01*
X113990667Y-40155810D01*
X113990667Y-40012952D01*
X114038286Y-39822476D01*
X114085905Y-39727238D01*
X114181143Y-39632000D01*
X114324001Y-39584381D01*
X114419239Y-39584381D01*
X114562096Y-39632000D01*
X114609715Y-39679619D01*
X115228762Y-39584381D02*
X115419239Y-39584381D01*
X115514477Y-39632000D01*
X115609715Y-39727238D01*
X115657334Y-39917714D01*
X115657334Y-40251048D01*
X115609715Y-40441524D01*
X115514477Y-40536762D01*
X115419239Y-40584381D01*
X115228762Y-40584381D01*
X115133524Y-40536762D01*
X115038286Y-40441524D01*
X114990667Y-40251048D01*
X114990667Y-39917714D01*
X115038286Y-39727238D01*
X115133524Y-39632000D01*
X115228762Y-39584381D01*
X116085905Y-40584381D02*
X116085905Y-39584381D01*
X116657334Y-40584381D01*
X116657334Y-39584381D01*
X117657334Y-40584381D02*
X117085905Y-40584381D01*
X117371619Y-40584381D02*
X117371619Y-39584381D01*
X117276381Y-39727238D01*
X117181143Y-39822476D01*
X117085905Y-39870095D01*
X178979605Y-52603981D02*
X178979605Y-51603981D01*
X179360558Y-51603981D01*
X179455796Y-51651600D01*
X179503415Y-51699219D01*
X179551034Y-51794457D01*
X179551034Y-51937314D01*
X179503415Y-52032552D01*
X179455796Y-52080171D01*
X179360558Y-52127790D01*
X178979605Y-52127790D01*
X180503415Y-52603981D02*
X179931986Y-52603981D01*
X180217700Y-52603981D02*
X180217700Y-51603981D01*
X180122462Y-51746838D01*
X180027224Y-51842076D01*
X179931986Y-51889695D01*
X111021905Y-72862381D02*
X111021905Y-71862381D01*
X111402858Y-71862381D01*
X111498096Y-71910000D01*
X111545715Y-71957619D01*
X111593334Y-72052857D01*
X111593334Y-72195714D01*
X111545715Y-72290952D01*
X111498096Y-72338571D01*
X111402858Y-72386190D01*
X111021905Y-72386190D01*
X111974286Y-71957619D02*
X112021905Y-71910000D01*
X112117143Y-71862381D01*
X112355239Y-71862381D01*
X112450477Y-71910000D01*
X112498096Y-71957619D01*
X112545715Y-72052857D01*
X112545715Y-72148095D01*
X112498096Y-72290952D01*
X111926667Y-72862381D01*
X112545715Y-72862381D01*
X146407619Y-82645238D02*
X146360000Y-82740476D01*
X146264762Y-82835714D01*
X146121905Y-82978571D01*
X146074286Y-83073810D01*
X146074286Y-83169048D01*
X146312381Y-83121429D02*
X146264762Y-83216667D01*
X146169524Y-83311905D01*
X145979048Y-83359524D01*
X145645714Y-83359524D01*
X145455238Y-83311905D01*
X145360000Y-83216667D01*
X145312381Y-83121429D01*
X145312381Y-82930952D01*
X145360000Y-82835714D01*
X145455238Y-82740476D01*
X145645714Y-82692857D01*
X145979048Y-82692857D01*
X146169524Y-82740476D01*
X146264762Y-82835714D01*
X146312381Y-82930952D01*
X146312381Y-83121429D01*
X146312381Y-81740476D02*
X146312381Y-82311905D01*
X146312381Y-82026191D02*
X145312381Y-82026191D01*
X145455238Y-82121429D01*
X145550476Y-82216667D01*
X145598095Y-82311905D01*
X146407619Y-68675238D02*
X146360000Y-68770476D01*
X146264762Y-68865714D01*
X146121905Y-69008571D01*
X146074286Y-69103810D01*
X146074286Y-69199048D01*
X146312381Y-69151429D02*
X146264762Y-69246667D01*
X146169524Y-69341905D01*
X145979048Y-69389524D01*
X145645714Y-69389524D01*
X145455238Y-69341905D01*
X145360000Y-69246667D01*
X145312381Y-69151429D01*
X145312381Y-68960952D01*
X145360000Y-68865714D01*
X145455238Y-68770476D01*
X145645714Y-68722857D01*
X145979048Y-68722857D01*
X146169524Y-68770476D01*
X146264762Y-68865714D01*
X146312381Y-68960952D01*
X146312381Y-69151429D01*
X145407619Y-68341905D02*
X145360000Y-68294286D01*
X145312381Y-68199048D01*
X145312381Y-67960952D01*
X145360000Y-67865714D01*
X145407619Y-67818095D01*
X145502857Y-67770476D01*
X145598095Y-67770476D01*
X145740952Y-67818095D01*
X146312381Y-68389524D01*
X146312381Y-67770476D01*
X145925019Y-55314838D02*
X145877400Y-55410076D01*
X145782162Y-55505314D01*
X145639305Y-55648171D01*
X145591686Y-55743410D01*
X145591686Y-55838648D01*
X145829781Y-55791029D02*
X145782162Y-55886267D01*
X145686924Y-55981505D01*
X145496448Y-56029124D01*
X145163114Y-56029124D01*
X144972638Y-55981505D01*
X144877400Y-55886267D01*
X144829781Y-55791029D01*
X144829781Y-55600552D01*
X144877400Y-55505314D01*
X144972638Y-55410076D01*
X145163114Y-55362457D01*
X145496448Y-55362457D01*
X145686924Y-55410076D01*
X145782162Y-55505314D01*
X145829781Y-55600552D01*
X145829781Y-55791029D01*
X144829781Y-55029124D02*
X144829781Y-54410076D01*
X145210733Y-54743410D01*
X145210733Y-54600552D01*
X145258352Y-54505314D01*
X145305971Y-54457695D01*
X145401210Y-54410076D01*
X145639305Y-54410076D01*
X145734543Y-54457695D01*
X145782162Y-54505314D01*
X145829781Y-54600552D01*
X145829781Y-54886267D01*
X145782162Y-54981505D01*
X145734543Y-55029124D01*
X133884919Y-63607938D02*
X133837300Y-63703176D01*
X133742062Y-63798414D01*
X133599205Y-63941271D01*
X133551586Y-64036510D01*
X133551586Y-64131748D01*
X133789681Y-64084129D02*
X133742062Y-64179367D01*
X133646824Y-64274605D01*
X133456348Y-64322224D01*
X133123014Y-64322224D01*
X132932538Y-64274605D01*
X132837300Y-64179367D01*
X132789681Y-64084129D01*
X132789681Y-63893652D01*
X132837300Y-63798414D01*
X132932538Y-63703176D01*
X133123014Y-63655557D01*
X133456348Y-63655557D01*
X133646824Y-63703176D01*
X133742062Y-63798414D01*
X133789681Y-63893652D01*
X133789681Y-64084129D01*
X133123014Y-62798414D02*
X133789681Y-62798414D01*
X132742062Y-63036510D02*
X133456348Y-63274605D01*
X133456348Y-62655557D01*
X134265919Y-47720238D02*
X134218300Y-47815476D01*
X134123062Y-47910714D01*
X133980205Y-48053571D01*
X133932586Y-48148810D01*
X133932586Y-48244048D01*
X134170681Y-48196429D02*
X134123062Y-48291667D01*
X134027824Y-48386905D01*
X133837348Y-48434524D01*
X133504014Y-48434524D01*
X133313538Y-48386905D01*
X133218300Y-48291667D01*
X133170681Y-48196429D01*
X133170681Y-48005952D01*
X133218300Y-47910714D01*
X133313538Y-47815476D01*
X133504014Y-47767857D01*
X133837348Y-47767857D01*
X134027824Y-47815476D01*
X134123062Y-47910714D01*
X134170681Y-48005952D01*
X134170681Y-48196429D01*
X133170681Y-46863095D02*
X133170681Y-47339286D01*
X133646871Y-47386905D01*
X133599252Y-47339286D01*
X133551633Y-47244048D01*
X133551633Y-47005952D01*
X133599252Y-46910714D01*
X133646871Y-46863095D01*
X133742110Y-46815476D01*
X133980205Y-46815476D01*
X134075443Y-46863095D01*
X134123062Y-46910714D01*
X134170681Y-47005952D01*
X134170681Y-47244048D01*
X134123062Y-47339286D01*
X134075443Y-47386905D01*
X134014619Y-78734238D02*
X133967000Y-78829476D01*
X133871762Y-78924714D01*
X133728905Y-79067571D01*
X133681286Y-79162810D01*
X133681286Y-79258048D01*
X133919381Y-79210429D02*
X133871762Y-79305667D01*
X133776524Y-79400905D01*
X133586048Y-79448524D01*
X133252714Y-79448524D01*
X133062238Y-79400905D01*
X132967000Y-79305667D01*
X132919381Y-79210429D01*
X132919381Y-79019952D01*
X132967000Y-78924714D01*
X133062238Y-78829476D01*
X133252714Y-78781857D01*
X133586048Y-78781857D01*
X133776524Y-78829476D01*
X133871762Y-78924714D01*
X133919381Y-79019952D01*
X133919381Y-79210429D01*
X132919381Y-77924714D02*
X132919381Y-78115191D01*
X132967000Y-78210429D01*
X133014619Y-78258048D01*
X133157476Y-78353286D01*
X133347952Y-78400905D01*
X133728905Y-78400905D01*
X133824143Y-78353286D01*
X133871762Y-78305667D01*
X133919381Y-78210429D01*
X133919381Y-78019952D01*
X133871762Y-77924714D01*
X133824143Y-77877095D01*
X133728905Y-77829476D01*
X133490810Y-77829476D01*
X133395571Y-77877095D01*
X133347952Y-77924714D01*
X133300333Y-78019952D01*
X133300333Y-78210429D01*
X133347952Y-78305667D01*
X133395571Y-78353286D01*
X133490810Y-78400905D01*
X165664854Y-57670961D02*
X165331520Y-57194770D01*
X165093425Y-57670961D02*
X165093425Y-56670961D01*
X165474378Y-56670961D01*
X165569616Y-56718580D01*
X165617235Y-56766199D01*
X165664854Y-56861437D01*
X165664854Y-57004294D01*
X165617235Y-57099532D01*
X165569616Y-57147151D01*
X165474378Y-57194770D01*
X165093425Y-57194770D01*
X166617235Y-57670961D02*
X166045806Y-57670961D01*
X166331520Y-57670961D02*
X166331520Y-56670961D01*
X166236282Y-56813818D01*
X166141044Y-56909056D01*
X166045806Y-56956675D01*
X165931554Y-77584561D02*
X165598220Y-77108370D01*
X165360125Y-77584561D02*
X165360125Y-76584561D01*
X165741078Y-76584561D01*
X165836316Y-76632180D01*
X165883935Y-76679799D01*
X165931554Y-76775037D01*
X165931554Y-76917894D01*
X165883935Y-77013132D01*
X165836316Y-77060751D01*
X165741078Y-77108370D01*
X165360125Y-77108370D01*
X166312506Y-76679799D02*
X166360125Y-76632180D01*
X166455363Y-76584561D01*
X166693459Y-76584561D01*
X166788697Y-76632180D01*
X166836316Y-76679799D01*
X166883935Y-76775037D01*
X166883935Y-76870275D01*
X166836316Y-77013132D01*
X166264887Y-77584561D01*
X166883935Y-77584561D01*
X165931554Y-51359061D02*
X165598220Y-50882870D01*
X165360125Y-51359061D02*
X165360125Y-50359061D01*
X165741078Y-50359061D01*
X165836316Y-50406680D01*
X165883935Y-50454299D01*
X165931554Y-50549537D01*
X165931554Y-50692394D01*
X165883935Y-50787632D01*
X165836316Y-50835251D01*
X165741078Y-50882870D01*
X165360125Y-50882870D01*
X166264887Y-50359061D02*
X166883935Y-50359061D01*
X166550601Y-50740013D01*
X166693459Y-50740013D01*
X166788697Y-50787632D01*
X166836316Y-50835251D01*
X166883935Y-50930490D01*
X166883935Y-51168585D01*
X166836316Y-51263823D01*
X166788697Y-51311442D01*
X166693459Y-51359061D01*
X166407744Y-51359061D01*
X166312506Y-51311442D01*
X166264887Y-51263823D01*
X166957001Y-70290986D02*
X166480810Y-70624320D01*
X166957001Y-70862415D02*
X165957001Y-70862415D01*
X165957001Y-70481462D01*
X166004620Y-70386224D01*
X166052239Y-70338605D01*
X166147477Y-70290986D01*
X166290334Y-70290986D01*
X166385572Y-70338605D01*
X166433191Y-70386224D01*
X166480810Y-70481462D01*
X166480810Y-70862415D01*
X166290334Y-69433843D02*
X166957001Y-69433843D01*
X165909382Y-69671939D02*
X166623668Y-69910034D01*
X166623668Y-69290986D01*
X164668461Y-69793146D02*
X164192270Y-70126480D01*
X164668461Y-70364575D02*
X163668461Y-70364575D01*
X163668461Y-69983622D01*
X163716080Y-69888384D01*
X163763699Y-69840765D01*
X163858937Y-69793146D01*
X164001794Y-69793146D01*
X164097032Y-69840765D01*
X164144651Y-69888384D01*
X164192270Y-69983622D01*
X164192270Y-70364575D01*
X163668461Y-68888384D02*
X163668461Y-69364575D01*
X164144651Y-69412194D01*
X164097032Y-69364575D01*
X164049413Y-69269337D01*
X164049413Y-69031241D01*
X164097032Y-68936003D01*
X164144651Y-68888384D01*
X164239890Y-68840765D01*
X164477985Y-68840765D01*
X164573223Y-68888384D01*
X164620842Y-68936003D01*
X164668461Y-69031241D01*
X164668461Y-69269337D01*
X164620842Y-69364575D01*
X164573223Y-69412194D01*
X162334201Y-70557686D02*
X161858010Y-70891020D01*
X162334201Y-71129115D02*
X161334201Y-71129115D01*
X161334201Y-70748162D01*
X161381820Y-70652924D01*
X161429439Y-70605305D01*
X161524677Y-70557686D01*
X161667534Y-70557686D01*
X161762772Y-70605305D01*
X161810391Y-70652924D01*
X161858010Y-70748162D01*
X161858010Y-71129115D01*
X161334201Y-69700543D02*
X161334201Y-69891020D01*
X161381820Y-69986258D01*
X161429439Y-70033877D01*
X161572296Y-70129115D01*
X161762772Y-70176734D01*
X162143725Y-70176734D01*
X162238963Y-70129115D01*
X162286582Y-70081496D01*
X162334201Y-69986258D01*
X162334201Y-69795781D01*
X162286582Y-69700543D01*
X162238963Y-69652924D01*
X162143725Y-69605305D01*
X161905630Y-69605305D01*
X161810391Y-69652924D01*
X161762772Y-69700543D01*
X161715153Y-69795781D01*
X161715153Y-69986258D01*
X161762772Y-70081496D01*
X161810391Y-70129115D01*
X161905630Y-70176734D01*
X133546554Y-83744061D02*
X133213220Y-83267870D01*
X132975125Y-83744061D02*
X132975125Y-82744061D01*
X133356078Y-82744061D01*
X133451316Y-82791680D01*
X133498935Y-82839299D01*
X133546554Y-82934537D01*
X133546554Y-83077394D01*
X133498935Y-83172632D01*
X133451316Y-83220251D01*
X133356078Y-83267870D01*
X132975125Y-83267870D01*
X133879887Y-82744061D02*
X134546554Y-82744061D01*
X134117982Y-83744061D01*
X133267154Y-68008761D02*
X132933820Y-67532570D01*
X132695725Y-68008761D02*
X132695725Y-67008761D01*
X133076678Y-67008761D01*
X133171916Y-67056380D01*
X133219535Y-67103999D01*
X133267154Y-67199237D01*
X133267154Y-67342094D01*
X133219535Y-67437332D01*
X133171916Y-67484951D01*
X133076678Y-67532570D01*
X132695725Y-67532570D01*
X133838582Y-67437332D02*
X133743344Y-67389713D01*
X133695725Y-67342094D01*
X133648106Y-67246856D01*
X133648106Y-67199237D01*
X133695725Y-67103999D01*
X133743344Y-67056380D01*
X133838582Y-67008761D01*
X134029059Y-67008761D01*
X134124297Y-67056380D01*
X134171916Y-67103999D01*
X134219535Y-67199237D01*
X134219535Y-67246856D01*
X134171916Y-67342094D01*
X134124297Y-67389713D01*
X134029059Y-67437332D01*
X133838582Y-67437332D01*
X133743344Y-67484951D01*
X133695725Y-67532570D01*
X133648106Y-67627809D01*
X133648106Y-67818285D01*
X133695725Y-67913523D01*
X133743344Y-67961142D01*
X133838582Y-68008761D01*
X134029059Y-68008761D01*
X134124297Y-67961142D01*
X134171916Y-67913523D01*
X134219535Y-67818285D01*
X134219535Y-67627809D01*
X134171916Y-67532570D01*
X134124297Y-67484951D01*
X134029059Y-67437332D01*
X133165554Y-52692561D02*
X132832220Y-52216370D01*
X132594125Y-52692561D02*
X132594125Y-51692561D01*
X132975078Y-51692561D01*
X133070316Y-51740180D01*
X133117935Y-51787799D01*
X133165554Y-51883037D01*
X133165554Y-52025894D01*
X133117935Y-52121132D01*
X133070316Y-52168751D01*
X132975078Y-52216370D01*
X132594125Y-52216370D01*
X133641744Y-52692561D02*
X133832220Y-52692561D01*
X133927459Y-52644942D01*
X133975078Y-52597323D01*
X134070316Y-52454466D01*
X134117935Y-52263990D01*
X134117935Y-51883037D01*
X134070316Y-51787799D01*
X134022697Y-51740180D01*
X133927459Y-51692561D01*
X133736982Y-51692561D01*
X133641744Y-51740180D01*
X133594125Y-51787799D01*
X133546506Y-51883037D01*
X133546506Y-52121132D01*
X133594125Y-52216370D01*
X133641744Y-52263990D01*
X133736982Y-52311609D01*
X133927459Y-52311609D01*
X134022697Y-52263990D01*
X134070316Y-52216370D01*
X134117935Y-52121132D01*
M02*
