G04 #@! TF.FileFunction,Copper,L1,Top,Signal*
%FSLAX46Y46*%
G04 Gerber Fmt 4.6, Leading zero omitted, Abs format (unit mm)*
G04 Created by KiCad (PCBNEW 4.0.0-1rc2.201511201506+6189~38~ubuntu14.04.1-stable) date dom 29 nov 2015 21:26:02 COT*
%MOMM*%
G01*
G04 APERTURE LIST*
%ADD10C,0.100000*%
%ADD11C,4.800600*%
%ADD12R,4.800600X4.800600*%
%ADD13R,1.727200X1.727200*%
%ADD14O,1.727200X1.727200*%
%ADD15R,2.032000X1.727200*%
%ADD16O,2.032000X1.727200*%
%ADD17O,1.501140X0.899160*%
%ADD18O,3.500120X1.699260*%
%ADD19C,1.998980*%
%ADD20C,1.500000*%
%ADD21C,1.000000*%
G04 APERTURE END LIST*
D10*
D11*
X115570000Y-45720000D03*
D12*
X121666000Y-45720000D03*
D11*
X117856000Y-50800000D03*
D13*
X179717700Y-57251600D03*
D14*
X182257700Y-57251600D03*
X179717700Y-59791600D03*
X182257700Y-59791600D03*
X179717700Y-62331600D03*
X182257700Y-62331600D03*
X179717700Y-64871600D03*
X182257700Y-64871600D03*
X179717700Y-67411600D03*
X182257700Y-67411600D03*
X179717700Y-69951600D03*
X182257700Y-69951600D03*
D15*
X111760000Y-67310000D03*
D16*
X111760000Y-64770000D03*
X111760000Y-62230000D03*
X111760000Y-59690000D03*
D17*
X149860000Y-81280000D03*
X149860000Y-80010000D03*
X149860000Y-82550000D03*
X149860000Y-67310000D03*
X149860000Y-66040000D03*
X149860000Y-68580000D03*
X149377400Y-53949600D03*
X149377400Y-52679600D03*
X149377400Y-55219600D03*
D18*
X138417300Y-63512700D03*
X138417300Y-66052700D03*
X138417300Y-60972700D03*
X138798300Y-47625000D03*
X138798300Y-50165000D03*
X138798300Y-45085000D03*
X138547000Y-78639000D03*
X138547000Y-81179000D03*
X138547000Y-76099000D03*
D19*
X160502600Y-60718700D03*
X170662600Y-60718700D03*
X160769300Y-80632300D03*
X170929300Y-80632300D03*
X160769300Y-54406800D03*
X170929300Y-54406800D03*
X163004500Y-64795400D03*
X163004500Y-74955400D03*
X167716200Y-74955400D03*
X167716200Y-64795400D03*
X158381700Y-65062100D03*
X158381700Y-75222100D03*
X128384300Y-86791800D03*
X138544300Y-86791800D03*
X128104900Y-71056500D03*
X138264900Y-71056500D03*
X128003300Y-55740300D03*
X138163300Y-55740300D03*
D20*
X146050000Y-60960000D03*
X146050000Y-66040000D03*
X123190000Y-59055000D03*
X123190000Y-68580000D03*
X128270000Y-76200000D03*
X128270000Y-81280000D03*
D21*
X146050000Y-60960000D02*
X146050000Y-66040000D01*
X123190000Y-68580000D02*
X123190000Y-59055000D01*
X128270000Y-81280000D02*
X128270000Y-76200000D01*
M02*
